<?xml version="1.0" encoding="utf-8"?>
<!-- Generator: Adobe Illustrator 22.0.1, SVG Export Plug-In . SVG Version: 6.00 Build 0)  -->
<svg version="1.1" id="Layer_1" xmlns="http://www.w3.org/2000/svg" xmlns:xlink="http://www.w3.org/1999/xlink" x="0px" y="0px"
	 viewBox="0 0 200 200" style="enable-background:new 0 0 200 200;" xml:space="preserve">
<style type="text/css">
	.st0{fill:#97D1F4;}
	.st1{fill:#2D98DA;}
	.st2{fill:#24567F;}
	.st3{fill:#FFFFFF;}
	.st4{fill:none;}
	.st5{fill:#00C3FF;}
	.st6{fill:#00DBFF;}
	.st7{fill:#0794EA;}
	.st8{fill:#1355EA;}
	.st9{fill:#6205A5;}
	.st10{fill:#065FED;stroke:#FFFFFF;stroke-width:3;stroke-miterlimit:10;}
	.st11{fill:#065FED;stroke:#FFFFFF;stroke-width:7;stroke-miterlimit:10;}
	.st12{fill:#6978E6;}
	.st13{fill:#6AFAE7;}
	.st14{fill:#05A4D6;}
	.st15{fill:#065FED;}
	.st16{fill:url(#SVGID_1_);}
	.st17{fill:url(#SVGID_2_);}
	.st18{fill:url(#SVGID_3_);}
	.st19{fill:#2E3192;}
	.st20{fill:url(#SVGID_4_);}
	.st21{fill:url(#SVGID_5_);}
	.st22{fill:url(#SVGID_6_);}
	.st23{opacity:0.5;fill:#00C7CC;}
	.st24{fill:none;stroke:#000000;stroke-width:0.75;stroke-miterlimit:10;}
	.st25{fill:#00C7CC;}
	.st26{fill:url(#SVGID_7_);}
	.st27{fill:none;stroke:#000000;stroke-width:36;stroke-linecap:round;stroke-miterlimit:10;}
	.st28{fill:#0080FF;}
	.st29{fill:#0BC6FF;}
	.st30{fill:#0069E9;}
	.st31{fill:#0053A5;}
	.st32{opacity:0.5;}
	.st33{fill:url(#SVGID_8_);}
	.st34{fill:url(#SVGID_9_);}
	.st35{fill:#72A7FD;stroke:#FFFFFF;stroke-width:3;stroke-miterlimit:10;}
	.st36{opacity:0.5;fill:#0080FF;}
	.st37{fill:#1D78FC;}
	.st38{fill:#1D78FC;stroke:#FFFFFF;stroke-width:2;stroke-miterlimit:10;}
	.st39{fill:#70AFF9;}
	.st40{fill:url(#SVGID_10_);}
	.st41{fill:#FFFFFF;stroke:#29374C;stroke-width:2;stroke-miterlimit:10;}
	.st42{fill:#FFFFFF;stroke:#29374C;stroke-miterlimit:10;}
	.st43{fill:none;stroke:#B3B3B3;stroke-miterlimit:10;}
	.st44{fill:none;stroke:#D1D1D1;stroke-miterlimit:10;}
	.st45{fill:none;stroke:#D1D1D1;stroke-miterlimit:10;stroke-dasharray:11.9783,11.9783;}
	.st46{fill:none;stroke:#3C4AE4;stroke-width:4;stroke-miterlimit:10;}
	.st47{fill:#FFFFFF;stroke:#3C4AE4;stroke-width:4;stroke-miterlimit:10;}
	.st48{fill:#009FA3;}
</style>
<path class="st3" d="M60.1,57.2c-0.4-0.7-1-1.3-1.6-1.9c-0.4-0.4-0.8-0.7-1.3-1c-2-1.4-4.6-2-7.7-2c-5.1,0-9.3,2-12.7,6.1
	c-1.5,1.9-2.8,4.1-4,6.6c-1.1,2.5-2.1,5.2-3,7.9c-0.9,2.8-1.7,5.6-2.5,8.5c-0.8,2.9-1.6,5.8-2.5,8.5l-0.4,1.4
	c-2.4,0.6-4.7,1.5-7,2.7c-1.1,0.6-2.1,1.2-2.9,1.9c-0.8,0.7-1.2,1.2-1.2,1.7c0,0.5,0.1,0.9,0.3,1.3c0.8,1.3,1.8,2,3.1,2l5-1.3
	l-3.8,12.8c-1.1,3.9-2.2,7.5-3.3,10.9c-1.1,3.4-2.2,6.7-3.5,9.8c-1.2,3.1-2.3,5.7-3.3,7.7s-1.5,3.4-1.5,4c0,0.5,0.1,1,0.3,1.4
	c0.2,0.3,0.5,0.6,0.9,0.9c0.7,0.5,1.8,0.7,3.2,0.7c3,0,5.2-1.4,6.6-4.1c1.6-3,3.2-6.7,4.8-11c1.6-4.3,3.7-11.3,6.4-20.8l4-14
	c2.8-0.3,5.9-0.4,9.3-0.4l6.2,0.2c1.8,0,2.7-0.9,2.7-2.8c0-1.8-1-3.4-2.9-4.7c-0.8-0.5-1.8-1-2.8-1.3c-1-0.3-2.2-0.5-3.6-0.5
	c-1.3,0-3.5,0.2-6.4,0.7l4.6-15.5c0.7-2.4,1.4-4.5,2.1-6.5c2.4-6.4,5-9.6,7.9-9.6c2.1,0,3.1,1.3,3.1,4c0,0.7-0.1,1.4-0.3,2.1
	c-0.7,2.3-2,4.1-3.7,5.4c-1,0.6-1.5,1.2-1.5,1.9c0,0.4,0.1,0.9,0.4,1.6c0.9,2.4,2.7,3.6,5.3,3.6c2.1,0,4-1.1,5.7-3.2
	c2-2.6,3.1-5.7,3.1-9.3C61.8,61,61.3,58.9,60.1,57.2z"/>
<path class="st3" d="M81.8,55.4c-0.4-0.7-1.1-1.4-1.9-2c-1-0.7-2.2-1.1-3.7-1.1c-2.4,0-3.7,1.4-4,4.1c-0.3,3.2-0.9,6.9-1.9,11.1
	c-1.7,7.7-4.4,17-8.2,27.9l-4.1,12.1c-1.2,3.7-2.2,7-3,9.9c-0.8,2.9-1.2,5.2-1.2,7c0,1.7,0.2,3.2,0.7,4.6c0.5,1.3,1.2,2.4,2,3.2
	c0.8,0.8,1.7,1.5,2.7,1.8c1,0.4,2.3,0.6,3.9,0.6c1.6,0,3.4-0.7,5.4-2c2.9-1.9,4.4-4.3,4.4-7.2c0-0.7-0.3-1-1-1c-0.3,0-1,0.3-2.1,0.9
	c-1.1,0.6-2.3,0.9-3.7,0.9c-1.4,0-2.1-0.9-2.1-2.6c0-3.3,1.9-10.5,5.8-21.7l6.7-19.7c0.8-2.2,1.5-4.3,2.1-6.4c0.3-1,0.6-2.1,0.9-3
	c0.9-3,1.6-5.7,2.1-8.2c0.5-2.5,0.9-4.6,0.9-6.4C82.7,57.2,82.4,56.3,81.8,55.4z"/>
<path class="st3" d="M123.4,97c-0.2-1.5-0.6-3-1.1-4.3c-0.4-0.9-0.8-1.8-1.3-2.6c-2.3-3.7-5.8-5.8-10.6-6.1c-0.5,0-1.1-0.1-1.6-0.1
	c-5.1,0-10,1.8-14.7,5.4c-0.3,0.3-0.7,0.5-1,0.8c-1.8,1.5-3.4,3.2-4.9,5.1c-1.8,2.3-3.3,4.7-4.6,7.3c-1.3,2.6-2.3,5.3-3,8
	c-0.7,2.8-1,5.5-1,8.2c0,2.7,0.4,5.1,1.2,7.1c0.8,2,1.8,3.6,3.2,4.9c1.4,1.3,3,2.2,4.8,2.9s4,0.9,6.4,0.9c2.4,0,4.8-0.5,7.2-1.5
	c4.9-1.9,9.1-5.2,12.7-9.8c1.7-2.1,3.1-4.4,4.3-6.7c1.4-2.7,2.4-5.5,3.2-8.5C123.6,103.9,123.9,100.2,123.4,97z M110,110.7
	c-0.9,2.4-2,4.7-3.2,6.9c-1.2,2.2-2.5,4.1-3.8,5.8c-1.4,1.7-2.7,3-4.2,4.1c-1.4,1-2.9,1.5-4.4,1.5c-1.5,0-2.6-0.6-3.2-1.9
	c-0.7-1.3-1-3-1.1-5.3c0-2.2,0.2-4.6,0.8-7.2c0.6-2.5,1.3-5,2.3-7.4c1-2.4,2.1-4.7,3.3-6.8c0.9-1.5,1.7-2.8,2.7-4
	c0.4-0.6,0.8-1.1,1.3-1.6c1.4-1.6,2.7-2.9,4.1-3.9s2.6-1.4,3.6-1.4s1.9,0.2,2.5,0.6c1.5,1,2.2,3.2,2.2,6.8c0,3.3-0.6,7-1.9,11.2
	C110.7,108.9,110.3,109.8,110,110.7z"/>
<path class="st3" d="M192.8,89.2c-0.2-0.5-0.4-1.1-0.6-1.5c-1.2-2.5-3.2-3.8-5.8-3.8c-2.6,0-4.4,0.6-5.6,1.8c-1.1,1.1-1.3,2.1-0.6,3
	c2.1,2.7,3.2,6.8,3.2,12.3c0,3.3-0.9,7-2.7,11.2c-0.8,2-1.8,3.9-3,5.7c-1.1,1.8-2.4,3.3-3.7,4.6c-1.3,1.3-2.7,2.4-4.2,3.1
	c-1.5,0.8-2.7,1.1-3.8,1.1c-1.1,0-1.9-0.2-2.4-0.6c-1.8-1.2-2.7-3.5-2.7-6.8c0-4.8,1.9-11,5.7-18.7l1.9-3.9c0.4-0.8,0.9-1.8,1.5-3
	c0.6-1.2,0.9-2.3,0.8-3.3c-0.1-1.6-1.6-2.5-4.4-2.6c-1.8-0.1-3.2,0.2-4.4,0.7c-0.7,0.3-1.3,1.1-1.8,2.2c-4.2,9-9,17-14.5,24l0,0
	c-0.7,0.9-1.3,1.7-2,2.5c-4.1,4.9-7.4,7.8-10.1,8.7c0.5-2.7,1.7-6.7,3.8-12.1l0.8-2l1.3-3.2l0.6-1.5c0.9-2.3,1.8-4.4,2.6-6.5
	c0.8-2.1,1.4-4.1,1.9-5.9c0.5-1.9,0.7-3.6,0.7-5.1c0-1.5-0.6-2.8-1.8-3.8c-0.6-0.5-1.4-1-2.3-1.3c-1-0.3-2.3-0.5-3.9-0.5
	c-1.7,0-3.3,0.4-4.8,1.1c-0.8,0.4-1.4,0.8-1.9,1.4c-0.5,0.5-0.7,1.1-0.7,1.6c0,0.6,0.3,1,0.8,1.4c0.5,0.4,1.1,0.8,1.7,1.3
	c0.6,0.5,1.1,1,1.6,1.6c0.5,0.6,0.5,1.8,0.1,3.6c-0.2,1.2-0.8,3.1-1.6,5.6c-0.3,1-0.7,2.1-1.2,3.3c-0.1,0.2-0.1,0.3-0.2,0.5l-4.3,11
	c-0.6,1.7-1.3,3.6-2,5.5c0,0,0,0,0,0.1c-0.7,1.9-1,4-1,6c0,0.8,0.2,1.6,0.5,2.5c1,2.6,2.7,3.9,5.2,3.9c1.5,0,3.3-0.7,5.5-2.1
	c1.5-0.9,3.1-2.2,4.8-3.7c2.6-2.3,5-4.8,7.4-7.6c0.7-0.8,1.4-1.6,2-2.5c1-1.3,2-2.7,3-4.1c-0.4,2-0.6,4.1-0.6,6.3v0.2
	c0,1.8,0.2,3.5,0.5,4.9c1.1,5.3,3.9,8.2,8.7,8.7c0.5,0.1,1.1,0.1,1.6,0.1c0.9,0,1.8-0.1,2.7-0.3c3.5-0.7,7.1-2.6,11-5.9
	c2.3-1.9,4.5-4.2,6.6-6.7c2.1-2.6,3.9-5.4,5.5-8.4c1.6-3,2.9-6.1,3.8-9.4c0.9-3.2,1.4-6.2,1.4-8.8C193.5,92.5,193.3,90.5,192.8,89.2
	z"/>
</svg>
